<svg class="icon" viewBox="0 0 1024 1024" xmlns="http://www.w3.org/2000/svg" width="16" height="16"><defs><style>@font-face{font-family:feedback-iconfont;src:url(//at.alicdn.com/t/font_1031158_u69w8yhxdu.woff2?t=1630033759944) format(&quot;woff2&quot;),url(//at.alicdn.com/t/font_1031158_u69w8yhxdu.woff?t=1630033759944) format(&quot;woff&quot;),url(//at.alicdn.com/t/font_1031158_u69w8yhxdu.ttf?t=1630033759944) format(&quot;truetype&quot;)}</style></defs><path d="M420.95 468.053H89.77a46.25 46.25 0 0 1-47.103-47.104V89.771c0-26.71 20.394-47.104 47.104-47.104h331.178c26.71 0 47.104 20.394 47.104 47.104v331.178c0 26.71-20.394 47.104-47.104 47.104zm-284.118-94.165h237.056V136.832H136.832v237.056zm284.117 607.445H89.771a46.25 46.25 0 0 1-47.104-47.104V603.051c0-26.71 20.394-47.104 47.104-47.104h331.178c26.71 0 47.104 20.394 47.104 47.104v331.178c0 26.71-20.394 47.104-47.104 47.104zm-284.117-94.165h237.056V650.112H136.832v237.056zm797.397-419.115H603.051a46.25 46.25 0 0 1-47.104-47.104V89.771c0-26.71 20.394-47.104 47.104-47.104h331.178c26.71 0 47.104 20.394 47.104 47.104v331.178c0 26.71-20.394 47.104-47.104 47.104zm-284.117-94.165h237.056V136.832H650.112v237.056zm284.117 607.445H603.051a46.25 46.25 0 0 1-47.104-47.104V603.051c0-26.71 20.394-47.104 47.104-47.104h331.178c26.71 0 47.104 20.394 47.104 47.104v331.178c0 26.71-20.394 47.104-47.104 47.104zm-284.117-94.165h237.056V650.112H650.112v237.056z" fill="#ef4b29"/></svg>